<mxfile host="app.diagrams.net" modified="2022-05-20T05:13:07.986Z" agent="5.0 (Macintosh; Intel Mac OS X 10_15_7) AppleWebKit/537.36 (KHTML, like Gecko) Chrome/101.0.4951.64 Safari/537.36" etag="TGcmCrpYREaih42nyZ5j" version="18.0.5" type="github">
  <diagram id="EE7eiriC4G1scFYlgK5R" name="Page-1">
    <mxGraphModel dx="1691" dy="1650" grid="1" gridSize="10" guides="1" tooltips="1" connect="1" arrows="1" fold="1" page="1" pageScale="1" pageWidth="827" pageHeight="1169" math="0" shadow="0">
      <root>
        <mxCell id="0" />
        <mxCell id="1" parent="0" />
        <mxCell id="uslA3hiGE0omuXjVGmja-40" value="" style="whiteSpace=wrap;html=1;aspect=fixed;fontSize=6;" parent="1" vertex="1">
          <mxGeometry x="210" y="145" width="80" height="80" as="geometry" />
        </mxCell>
        <mxCell id="uslA3hiGE0omuXjVGmja-33" value="" style="rounded=0;whiteSpace=wrap;html=1;fontSize=4;" parent="1" vertex="1">
          <mxGeometry x="-120" y="-127" width="530" height="370" as="geometry" />
        </mxCell>
        <mxCell id="uslA3hiGE0omuXjVGmja-11" value="" style="edgeStyle=orthogonalEdgeStyle;rounded=0;orthogonalLoop=1;jettySize=auto;html=1;startArrow=none;" parent="1" source="uslA3hiGE0omuXjVGmja-3" target="uslA3hiGE0omuXjVGmja-4" edge="1">
          <mxGeometry relative="1" as="geometry" />
        </mxCell>
        <mxCell id="uslA3hiGE0omuXjVGmja-1" value="" style="outlineConnect=0;dashed=0;verticalLabelPosition=bottom;verticalAlign=top;align=center;html=1;shape=mxgraph.aws3.route_53;fillColor=#F58536;gradientColor=none;" parent="1" vertex="1">
          <mxGeometry x="-40" y="24.12" width="30" height="37.5" as="geometry" />
        </mxCell>
        <mxCell id="uslA3hiGE0omuXjVGmja-2" value="" style="verticalLabelPosition=bottom;sketch=0;aspect=fixed;html=1;verticalAlign=top;strokeColor=none;align=center;outlineConnect=0;shape=mxgraph.citrix.users;" parent="1" vertex="1">
          <mxGeometry x="-110" y="27.87" width="35.17" height="30" as="geometry" />
        </mxCell>
        <mxCell id="uslA3hiGE0omuXjVGmja-14" style="edgeStyle=orthogonalEdgeStyle;rounded=0;orthogonalLoop=1;jettySize=auto;html=1;entryX=0;entryY=0.79;entryDx=0;entryDy=0;entryPerimeter=0;" parent="1" source="uslA3hiGE0omuXjVGmja-4" target="uslA3hiGE0omuXjVGmja-6" edge="1">
          <mxGeometry relative="1" as="geometry">
            <Array as="points">
              <mxPoint x="135" y="-46" />
            </Array>
          </mxGeometry>
        </mxCell>
        <mxCell id="uslA3hiGE0omuXjVGmja-38" style="edgeStyle=none;rounded=0;orthogonalLoop=1;jettySize=auto;html=1;fontSize=6;startArrow=none;" parent="1" source="uslA3hiGE0omuXjVGmja-44" edge="1">
          <mxGeometry relative="1" as="geometry">
            <mxPoint x="135" y="120" as="targetPoint" />
          </mxGeometry>
        </mxCell>
        <mxCell id="uslA3hiGE0omuXjVGmja-4" value="" style="outlineConnect=0;dashed=0;verticalLabelPosition=bottom;verticalAlign=top;align=center;html=1;shape=mxgraph.aws3.ec2;fillColor=#F58534;gradientColor=none;" parent="1" vertex="1">
          <mxGeometry x="120" y="3.552713678800501e-15" width="30" height="32.12" as="geometry" />
        </mxCell>
        <mxCell id="uslA3hiGE0omuXjVGmja-5" value="" style="outlineConnect=0;dashed=0;verticalLabelPosition=bottom;verticalAlign=top;align=center;html=1;shape=mxgraph.aws3.ec2;fillColor=#F58534;gradientColor=none;" parent="1" vertex="1">
          <mxGeometry x="245" y="6.049999999999997" width="30" height="32.13" as="geometry" />
        </mxCell>
        <mxCell id="uslA3hiGE0omuXjVGmja-6" value="" style="outlineConnect=0;dashed=0;verticalLabelPosition=bottom;verticalAlign=top;align=center;html=1;shape=mxgraph.aws3.elasticache;fillColor=#2E73B8;gradientColor=none;" parent="1" vertex="1">
          <mxGeometry x="290" y="-70" width="30" height="30" as="geometry" />
        </mxCell>
        <mxCell id="uslA3hiGE0omuXjVGmja-8" value="" style="outlineConnect=0;dashed=0;verticalLabelPosition=bottom;verticalAlign=top;align=center;html=1;shape=mxgraph.aws3.mysql_db_instance_2;fillColor=#2E73B8;gradientColor=none;" parent="1" vertex="1">
          <mxGeometry x="280" y="147" width="30" height="34" as="geometry" />
        </mxCell>
        <mxCell id="uslA3hiGE0omuXjVGmja-10" value="" style="endArrow=classic;html=1;rounded=0;entryX=0;entryY=0.5;entryDx=0;entryDy=0;entryPerimeter=0;" parent="1" source="uslA3hiGE0omuXjVGmja-2" target="uslA3hiGE0omuXjVGmja-1" edge="1">
          <mxGeometry width="50" height="50" relative="1" as="geometry">
            <mxPoint x="90" y="110" as="sourcePoint" />
            <mxPoint x="140" y="60" as="targetPoint" />
          </mxGeometry>
        </mxCell>
        <mxCell id="uslA3hiGE0omuXjVGmja-17" value="&lt;font style=&quot;font-size: 8px&quot;&gt;&lt;b&gt;User&lt;/b&gt;&lt;/font&gt;" style="text;html=1;align=center;verticalAlign=middle;resizable=0;points=[];autosize=1;strokeColor=none;fillColor=none;" parent="1" vertex="1">
          <mxGeometry x="-110" y="53" width="30" height="20" as="geometry" />
        </mxCell>
        <mxCell id="uslA3hiGE0omuXjVGmja-18" value="&lt;font style=&quot;font-size: 6px&quot;&gt;&lt;b&gt;Elastic Load&lt;br&gt;&amp;nbsp;Balancer&lt;/b&gt;&lt;/font&gt;" style="text;html=1;align=center;verticalAlign=middle;resizable=0;points=[];autosize=1;strokeColor=none;fillColor=none;fontSize=6;" parent="1" vertex="1">
          <mxGeometry x="19.5" y="58.94" width="50" height="20" as="geometry" />
        </mxCell>
        <mxCell id="uslA3hiGE0omuXjVGmja-19" value="&lt;b&gt;&lt;font style=&quot;font-size: 6px&quot;&gt;Route 53&lt;/font&gt;&lt;/b&gt;" style="text;html=1;align=center;verticalAlign=middle;resizable=0;points=[];autosize=1;strokeColor=none;fillColor=none;fontSize=4;" parent="1" vertex="1">
          <mxGeometry x="-45" y="60.94" width="40" height="10" as="geometry" />
        </mxCell>
        <mxCell id="uslA3hiGE0omuXjVGmja-20" value="&lt;b&gt;&lt;font style=&quot;font-size: 6px&quot;&gt;AWS&lt;br&gt;Elstic&amp;nbsp; Cache&lt;br&gt;(Rdis Server)&lt;/font&gt;&lt;/b&gt;" style="text;html=1;align=center;verticalAlign=middle;resizable=0;points=[];autosize=1;strokeColor=none;fillColor=none;fontSize=4;" parent="1" vertex="1">
          <mxGeometry x="280" y="-38" width="50" height="20" as="geometry" />
        </mxCell>
        <mxCell id="uslA3hiGE0omuXjVGmja-21" value="&lt;b&gt;&lt;font style=&quot;font-size: 6px&quot;&gt;AWS&lt;br&gt;EC2&lt;br&gt;(Content Server)&lt;/font&gt;&lt;/b&gt;" style="text;html=1;align=center;verticalAlign=middle;resizable=0;points=[];autosize=1;strokeColor=none;fillColor=none;fontSize=4;" parent="1" vertex="1">
          <mxGeometry x="265" y="33" width="60" height="20" as="geometry" />
        </mxCell>
        <mxCell id="uslA3hiGE0omuXjVGmja-23" value="&lt;b&gt;&lt;font style=&quot;font-size: 6px&quot;&gt;AWS&lt;br&gt;EC2&lt;br&gt;(App Server)&lt;/font&gt;&lt;/b&gt;" style="text;html=1;align=center;verticalAlign=middle;resizable=0;points=[];autosize=1;strokeColor=none;fillColor=none;fontSize=4;" parent="1" vertex="1">
          <mxGeometry x="140" y="65" width="50" height="20" as="geometry" />
        </mxCell>
        <mxCell id="uslA3hiGE0omuXjVGmja-24" value="" style="outlineConnect=0;dashed=0;verticalLabelPosition=bottom;verticalAlign=top;align=center;html=1;shape=mxgraph.aws3.vpc;fillColor=#F58536;gradientColor=none;fontSize=4;" parent="1" vertex="1">
          <mxGeometry x="139" y="-100" width="31" height="30" as="geometry" />
        </mxCell>
        <mxCell id="uslA3hiGE0omuXjVGmja-25" value="&lt;b&gt;&lt;font style=&quot;font-size: 6px&quot;&gt;AWS&lt;br&gt;VPC&lt;/font&gt;&lt;/b&gt;" style="text;html=1;align=center;verticalAlign=middle;resizable=0;points=[];autosize=1;strokeColor=none;fillColor=none;fontSize=4;" parent="1" vertex="1">
          <mxGeometry x="139" y="-70" width="30" height="20" as="geometry" />
        </mxCell>
        <mxCell id="uslA3hiGE0omuXjVGmja-28" value="" style="endArrow=none;html=1;rounded=0;fontSize=4;entryX=0;entryY=0.5;entryDx=0;entryDy=0;entryPerimeter=0;" parent="1" target="uslA3hiGE0omuXjVGmja-24" edge="1">
          <mxGeometry width="50" height="50" relative="1" as="geometry">
            <mxPoint x="-40" y="-85" as="sourcePoint" />
            <mxPoint x="110" y="-40" as="targetPoint" />
          </mxGeometry>
        </mxCell>
        <mxCell id="uslA3hiGE0omuXjVGmja-29" value="" style="endArrow=none;html=1;rounded=0;fontSize=4;" parent="1" edge="1">
          <mxGeometry width="50" height="50" relative="1" as="geometry">
            <mxPoint x="-40" y="120" as="sourcePoint" />
            <mxPoint x="-40" y="-86" as="targetPoint" />
            <Array as="points">
              <mxPoint x="-40" y="94" />
            </Array>
          </mxGeometry>
        </mxCell>
        <mxCell id="uslA3hiGE0omuXjVGmja-30" value="" style="endArrow=none;html=1;rounded=0;fontSize=4;" parent="1" edge="1">
          <mxGeometry width="50" height="50" relative="1" as="geometry">
            <mxPoint x="-40" y="120" as="sourcePoint" />
            <mxPoint x="366" y="120" as="targetPoint" />
            <Array as="points" />
          </mxGeometry>
        </mxCell>
        <mxCell id="uslA3hiGE0omuXjVGmja-31" value="" style="endArrow=none;html=1;rounded=0;fontSize=4;" parent="1" edge="1">
          <mxGeometry width="50" height="50" relative="1" as="geometry">
            <mxPoint x="366" y="-85" as="sourcePoint" />
            <mxPoint x="366" y="120" as="targetPoint" />
          </mxGeometry>
        </mxCell>
        <mxCell id="uslA3hiGE0omuXjVGmja-32" value="" style="endArrow=none;html=1;rounded=0;fontSize=4;exitX=1;exitY=0.5;exitDx=0;exitDy=0;exitPerimeter=0;" parent="1" edge="1">
          <mxGeometry width="50" height="50" relative="1" as="geometry">
            <mxPoint x="167" y="-85" as="sourcePoint" />
            <mxPoint x="367" y="-85" as="targetPoint" />
            <Array as="points" />
          </mxGeometry>
        </mxCell>
        <mxCell id="uslA3hiGE0omuXjVGmja-34" value="&lt;font style=&quot;font-size: 8px&quot;&gt;&lt;b&gt;Learning Portal&amp;nbsp; Architecture&lt;br&gt;(Australia)&lt;/b&gt;&lt;/font&gt;" style="text;html=1;align=center;verticalAlign=middle;resizable=0;points=[];autosize=1;strokeColor=none;fillColor=none;fontSize=4;" parent="1" vertex="1">
          <mxGeometry x="77" y="-127" width="130" height="20" as="geometry" />
        </mxCell>
        <mxCell id="uslA3hiGE0omuXjVGmja-46" style="edgeStyle=none;rounded=0;orthogonalLoop=1;jettySize=auto;html=1;fontSize=6;" parent="1" source="uslA3hiGE0omuXjVGmja-3" target="uslA3hiGE0omuXjVGmja-44" edge="1">
          <mxGeometry relative="1" as="geometry">
            <Array as="points">
              <mxPoint x="90" y="43" />
              <mxPoint x="90" y="71" />
            </Array>
          </mxGeometry>
        </mxCell>
        <mxCell id="uslA3hiGE0omuXjVGmja-3" value="" style="outlineConnect=0;dashed=0;verticalLabelPosition=bottom;verticalAlign=top;align=center;html=1;shape=mxgraph.aws3.classic_load_balancer;fillColor=#F58536;gradientColor=none;" parent="1" vertex="1">
          <mxGeometry x="29" y="26.8" width="31" height="32.13" as="geometry" />
        </mxCell>
        <mxCell id="uslA3hiGE0omuXjVGmja-35" value="" style="edgeStyle=orthogonalEdgeStyle;rounded=0;orthogonalLoop=1;jettySize=auto;html=1;endArrow=none;" parent="1" source="uslA3hiGE0omuXjVGmja-1" target="uslA3hiGE0omuXjVGmja-3" edge="1">
          <mxGeometry relative="1" as="geometry">
            <mxPoint x="-20" y="42.950000000000045" as="sourcePoint" />
            <mxPoint x="130" y="57.879999999999995" as="targetPoint" />
          </mxGeometry>
        </mxCell>
        <mxCell id="uslA3hiGE0omuXjVGmja-39" value="" style="endArrow=none;dashed=1;html=1;rounded=0;fontSize=6;exitX=0;exitY=0.5;exitDx=0;exitDy=0;" parent="1" source="uslA3hiGE0omuXjVGmja-43" edge="1">
          <mxGeometry width="50" height="50" relative="1" as="geometry">
            <mxPoint x="125.08064516129025" y="243" as="sourcePoint" />
            <mxPoint x="135" y="120" as="targetPoint" />
            <Array as="points">
              <mxPoint x="135" y="187" />
            </Array>
          </mxGeometry>
        </mxCell>
        <mxCell id="uslA3hiGE0omuXjVGmja-43" value="" style="swimlane;startSize=0;fontSize=6;" parent="1" vertex="1">
          <mxGeometry x="241" y="147" width="127.5" height="80" as="geometry" />
        </mxCell>
        <mxCell id="KZRPDrX9MOOP67nFsyTG-1" value="" style="outlineConnect=0;dashed=0;verticalLabelPosition=bottom;verticalAlign=top;align=center;html=1;shape=mxgraph.aws3.mysql_db_instance_2;fillColor=#2E73B8;gradientColor=none;" parent="uslA3hiGE0omuXjVGmja-43" vertex="1">
          <mxGeometry x="39" y="44" width="30" height="34" as="geometry" />
        </mxCell>
        <mxCell id="uslA3hiGE0omuXjVGmja-22" value="&lt;b&gt;&lt;font style=&quot;font-size: 6px&quot;&gt;On Prem&lt;br&gt;(DB Server)&lt;/font&gt;&lt;/b&gt;" style="text;html=1;align=center;verticalAlign=middle;resizable=0;points=[];autosize=1;strokeColor=none;fillColor=none;fontSize=4;" parent="uslA3hiGE0omuXjVGmja-43" vertex="1">
          <mxGeometry x="-7" y="28" width="50" height="20" as="geometry" />
        </mxCell>
        <mxCell id="KZRPDrX9MOOP67nFsyTG-2" value="" style="outlineConnect=0;dashed=0;verticalLabelPosition=bottom;verticalAlign=top;align=center;html=1;shape=mxgraph.aws3.mysql_db_instance_2;fillColor=#2E73B8;gradientColor=none;" parent="uslA3hiGE0omuXjVGmja-43" vertex="1">
          <mxGeometry x="79" y="23" width="30" height="34" as="geometry" />
        </mxCell>
        <mxCell id="uslA3hiGE0omuXjVGmja-44" value="" style="outlineConnect=0;dashed=0;verticalLabelPosition=bottom;verticalAlign=top;align=center;html=1;shape=mxgraph.aws3.ec2;fillColor=#F58534;gradientColor=none;" parent="1" vertex="1">
          <mxGeometry x="120" y="52.88" width="30" height="32.12" as="geometry" />
        </mxCell>
        <mxCell id="uslA3hiGE0omuXjVGmja-45" value="" style="edgeStyle=none;rounded=0;orthogonalLoop=1;jettySize=auto;html=1;fontSize=6;endArrow=none;" parent="1" source="uslA3hiGE0omuXjVGmja-4" target="uslA3hiGE0omuXjVGmja-44" edge="1">
          <mxGeometry relative="1" as="geometry">
            <mxPoint x="135" y="120" as="targetPoint" />
            <mxPoint x="135" y="14.120000000000005" as="sourcePoint" />
          </mxGeometry>
        </mxCell>
        <mxCell id="uslA3hiGE0omuXjVGmja-48" value="&lt;b&gt;&lt;font style=&quot;font-size: 6px&quot;&gt;AWS&lt;br&gt;EC2&lt;br&gt;(App Server)&lt;/font&gt;&lt;/b&gt;" style="text;html=1;align=center;verticalAlign=middle;resizable=0;points=[];autosize=1;strokeColor=none;fillColor=none;fontSize=4;" parent="1" vertex="1">
          <mxGeometry x="139" y="12.119999999999997" width="50" height="20" as="geometry" />
        </mxCell>
        <mxCell id="JeBpTPUMA11DeSVhObiz-1" value="" style="outlineConnect=0;dashed=0;verticalLabelPosition=bottom;verticalAlign=top;align=center;html=1;shape=mxgraph.aws3.ec2;fillColor=#F58534;gradientColor=none;" vertex="1" parent="1">
          <mxGeometry x="245" y="52.87" width="30" height="32.13" as="geometry" />
        </mxCell>
        <mxCell id="JeBpTPUMA11DeSVhObiz-10" value="" style="endArrow=none;html=1;rounded=0;entryX=0.5;entryY=1;entryDx=0;entryDy=0;entryPerimeter=0;exitX=0.5;exitY=0;exitDx=0;exitDy=0;exitPerimeter=0;" edge="1" parent="1" source="JeBpTPUMA11DeSVhObiz-1" target="uslA3hiGE0omuXjVGmja-5">
          <mxGeometry width="50" height="50" relative="1" as="geometry">
            <mxPoint x="270" y="80" as="sourcePoint" />
            <mxPoint x="320" y="30" as="targetPoint" />
          </mxGeometry>
        </mxCell>
        <mxCell id="JeBpTPUMA11DeSVhObiz-11" value="" style="endArrow=classic;html=1;rounded=0;" edge="1" parent="1">
          <mxGeometry width="50" height="50" relative="1" as="geometry">
            <mxPoint x="136" y="44.56" as="sourcePoint" />
            <mxPoint x="260" y="45" as="targetPoint" />
          </mxGeometry>
        </mxCell>
        <mxCell id="JeBpTPUMA11DeSVhObiz-12" style="edgeStyle=none;rounded=0;orthogonalLoop=1;jettySize=auto;html=1;entryX=-0.014;entryY=0.456;entryDx=0;entryDy=0;entryPerimeter=0;" edge="1" parent="1" source="uslA3hiGE0omuXjVGmja-21" target="uslA3hiGE0omuXjVGmja-21">
          <mxGeometry relative="1" as="geometry" />
        </mxCell>
      </root>
    </mxGraphModel>
  </diagram>
</mxfile>
